<?xml version="1.0" encoding="utf-8"?>
<!-- Generator: Adobe Illustrator 21.1.0, SVG Export Plug-In . SVG Version: 6.00 Build 0)  -->
<svg version="1.1" id="Layer_1" xmlns="http://www.w3.org/2000/svg" xmlns:xlink="http://www.w3.org/1999/xlink" x="0px" y="0px"
	 viewBox="0 0 35 35" style="enable-background:new 0 0 35 35;" xml:space="preserve">
<style type="text/css">
	.st0{fill-rule:evenodd;clip-rule:evenodd;fill:#2672A1;}
</style>
<path class="st0" d="M5.6,27.3c0,0.6-0.1,1-0.1,1.4c-0.2,1.6-1,2.8-2.8,2.7c-1.8-0.1-2.6-1.3-2.6-3c0-3.1,0-6.2,0-9.3
	c0-0.8,0.1-1.8,0.6-2.3c2.5-2.6,3-6,4.2-9.1C6.2,4.5,7.7,3.4,11,3.4c4.4,0,8.7,0,13.1,0c3.1,0,4.7,1.2,5.8,4.1
	c1.2,3.2,1.8,6.6,4.2,9.3c0.7,0.8,0.7,2.3,0.7,3.4c0.1,2.6,0,5.1,0,7.7c0,1.9-0.5,3.4-2.6,3.5c-2.1,0.1-2.8-1.4-2.8-3.3
	c0-0.2-0.1-0.4-0.1-0.8C21.5,27.3,13.7,27.3,5.6,27.3z M17.6,6.1c-2.3,0-4.5,0-6.8,0c-1.7,0-2.7,0.7-3.2,2.3
	c-0.2,0.7-0.5,1.4-0.7,2.1c-1,2.9-0.8,3,2.2,2.9c5-0.2,10.1-0.7,15.1-0.2c6.3,0.7,4.7-0.4,3.3-4.6c-0.6-1.8-1.7-2.5-3.5-2.5
	C21.8,6.1,19.7,6.1,17.6,6.1z M22.7,19.4c0-0.7-0.6-1.3-1.3-1.3h-7.8c-0.7,0-1.3,0.6-1.3,1.3l0,0c0,0.7,0.6,1.3,1.3,1.3h7.8
	C22.1,20.8,22.7,20.2,22.7,19.4L22.7,19.4z M8.5,20.1c0-1.4-1.1-2.5-2.4-2.4c-1.4,0.1-2.3,0.9-2.4,2.3c-0.1,1.4,1,2.5,2.4,2.5
	C7.5,22.5,8.5,21.5,8.5,20.1z M31.8,20.1c0-1.4-1.1-2.5-2.4-2.4c-1.4,0.1-2.3,0.9-2.4,2.3c-0.1,1.4,1,2.5,2.4,2.5
	C30.7,22.5,31.8,21.5,31.8,20.1z"/>
</svg>
