<?xml version="1.0" encoding="utf-8"?>
<!-- Generator: Adobe Illustrator 21.1.0, SVG Export Plug-In . SVG Version: 6.00 Build 0)  -->
<svg version="1.1" id="Layer_1" xmlns="http://www.w3.org/2000/svg" xmlns:xlink="http://www.w3.org/1999/xlink" x="0px" y="0px"
	 viewBox="0 0 35 35" style="enable-background:new 0 0 35 35;" xml:space="preserve">
<style type="text/css">
	.st0{fill:#2672A1;stroke:#2672A1;stroke-width:0.5829;}
</style>
<path class="st0" d="M0.6,19.7c-0.8,3.6,1.3,7.1,4.7,8.1c4,1.1,8.2-1.2,8.8-5.9c0.6,0,1.2-0.1,1.8,0c0.9,0.1,1.4-0.2,2-0.9
	c2-2.4,4-4.7,6-7c0.2-0.3,0.5-0.5,0.8-0.9c0.2,0.7,0.3,1.2,0.4,1.7c-3.9,2.6-5.1,5.8-3.6,9.2c1.4,3.1,4.8,4.7,8,3.8
	c3.3-0.9,5.3-4,4.9-7.5c-0.2-1.6-0.9-3-2.1-4.1c-1.7-1.6-3.7-2.1-6-1.8c-0.4-2.1-0.9-4.1-1.2-6.1c-0.3-1.5-0.2-1.5-1.7-1.5
	c-1,0-2.1,0.2-3-0.6c-0.1-0.1-0.6,0.1-0.7,0.2c-0.1,0.2-0.1,0.7,0.1,0.8c0.5,0.3,1,0.7,1.6,0.8c0.7,0.2,1.5,0.1,2.3,0.2
	c0.2,0.9,0.3,1.8,0.5,2.7c-3.8,0-7.6,0-11.3,0c-0.2,0-0.5-0.1-0.6-0.3c-0.3-0.5-0.5-1.1-0.8-1.6c0.8-0.2,1.5-0.3,2.1-0.6
	c0.2-0.1,0.5-0.3,0.5-0.6c-0.1-0.2-0.5-0.2-0.7-0.2c-1.5,0-3,0-4.6,0C8,7.7,7.8,8.1,7.9,9C8,9.8,8.5,9.7,9.1,9.6
	C9.4,9.5,9.7,9.4,10,9.3c0.3,0.7,0.7,1.3,1,2c0.1,0.2,0.1,0.5,0,0.7c-0.4,0.9-0.9,1.8-1.4,2.8C4.9,13.9,1.5,15.8,0.6,19.7z
	 M26.9,21.1c0.1,0.3,0.3,0.6,0.5,0.8c0.1,0.1,0.5,0,0.6-0.1c0.1-0.2,0.3-0.6,0.2-0.9c-0.4-1.3-0.8-2.7-1.2-4
	c-0.1-0.3-0.2-0.6-0.2-0.9c2.9-0.5,5.6,1.3,6.2,4c0.7,2.9-1,5.7-3.9,6.5c-2.8,0.8-5.6-0.8-6.6-3.5c-0.9-2.6,0.4-5.6,2.9-6.6
	C25.9,18,26.4,19.5,26.9,21.1z M16.9,20c-1.3-2.5-2.5-5-3.8-7.6c3.4,0,6.8,0,10.3,0C21.2,15,19.1,17.5,16.9,20z M15.6,20.5
	c-0.6,0-1,0-1.6,0c-0.3-2.1-1.3-3.7-3.1-5c0.4-0.7,0.7-1.4,1.1-2.3C13.2,15.7,14.4,18,15.6,20.5z M8.4,20.5c0.7-1.3,1.3-2.5,1.9-3.8
	c1.3,1,2.1,2.1,2.3,3.8C11.2,20.5,9.8,20.5,8.4,20.5z M9,16.1c-0.8,1.5-1.5,3-2.2,4.4c-0.5,0.9-0.2,1.3,0.8,1.3c1.6,0,3.3,0,4.9,0
	c0,1.9-1.5,3.8-3.6,4.5c-2.3,0.8-4.7,0-6.1-1.9c-1.4-1.9-1.4-4.5,0-6.4C4.2,16.1,6.6,15.3,9,16.1z"/>
</svg>
