<?xml version="1.0" encoding="utf-8"?>
<!-- Generator: Adobe Illustrator 21.1.0, SVG Export Plug-In . SVG Version: 6.00 Build 0)  -->
<svg version="1.1" id="Layer_1" xmlns="http://www.w3.org/2000/svg" xmlns:xlink="http://www.w3.org/1999/xlink" x="0px" y="0px"
	 viewBox="0 0 35 35" style="enable-background:new 0 0 35 35;" xml:space="preserve">
<style type="text/css">
	.st0{fill:#2672A1;}
</style>
<g>
	<path class="st0" d="M14.5,13.4c-0.4,2.1-0.8,3.9-1.2,5.8C12.9,20.6,13,22,14.3,23c2.8,2.3,4.1,5.3,4.6,8.9
		c0.1,0.4,0.2,0.9,0.3,1.3c0.3,1.3,1,1.9,2.3,1.6c1.2-0.3,1.6-1.2,1.3-2.4c-0.9-3.6-1.3-7.4-3.5-10.6c-0.5-0.7-0.6-2-0.4-3
		c0.4-2.2,1.1-4.4,1.6-6.7c0.6-2.6-0.5-3.6-3-3.8c-2.5-0.2-4,1.6-6,2.5c-3.3,1.5-3.8,4.9-5,7.7C6.2,19,6.7,20,7.1,20.2
		c0.4,0.2,1.4-0.1,1.8-0.5c0.5-0.5,0.8-1.3,1-2C10.6,15.5,11.9,14.1,14.5,13.4z M12.4,23.7c0.1,3-1.8,4.9-3.4,7
		c-0.2,0.3-0.5,0.6-0.7,0.9c-0.8,1-0.9,2,0.2,2.8c1,0.8,2,0.4,2.8-0.6c0.9-1.1,1.8-2.3,2.7-3.5C16.6,26.8,15.8,26,12.4,23.7z
		 M27.7,15.3c-2.2-0.7-4.4-1.3-5.5-4.2c-0.3,1.3-0.4,2.1-0.7,2.8c-0.6,1.6,0.3,2.5,1.5,3c1.3,0.6,2.7,0.9,4,1.1"/>
	<path class="st0" d="M14.5,13.4c-2.6,0.7-3.9,2.1-4.6,4.3c-0.2,0.7-0.5,1.5-1,2c-0.4,0.4-1.3,0.7-1.8,0.5c-0.6-0.2-1-1.2-0.8-1.6
		c1.2-2.8,1.7-6.2,5-7.7c2-0.9,3.4-2.8,6-2.5c2.6,0.2,3.6,1.3,3,3.8c-0.5,2.2-1.2,4.4-1.6,6.7c-0.2,1-0.1,2.2,0.4,3
		c2.3,3.2,2.7,6.9,3.5,10.6c0.3,1.1-0.1,2.1-1.3,2.4c-1.3,0.3-2.1-0.4-2.3-1.6c-0.1-0.4-0.2-0.9-0.3-1.3c-0.4-3.5-1.7-6.6-4.6-8.9
		c-1.2-1-1.4-2.3-1.1-3.8C13.6,17.3,14,15.5,14.5,13.4z"/>
	<path class="st0" d="M12.4,23.7c3.3,2.3,4.1,3.1,1.5,6.7c-0.9,1.2-1.8,2.3-2.7,3.5c-0.8,1-1.7,1.4-2.8,0.6
		c-1.1-0.8-0.9-1.8-0.2-2.8C8.5,31.3,8.8,31,9,30.7C10.6,28.7,12.5,26.7,12.4,23.7z"/>
	<path class="st0" d="M22.2,11.1c1.1,2.9,3.3,3.5,5.5,4.2c0.5,0.2,1.1,1,1,1.8c-0.4,0.7-1.1,1-1.7,0.9c-1.4-0.2-2.8-0.6-4-1.1
		c-1.2-0.5-2.1-1.4-1.5-3C21.8,13.2,21.9,12.5,22.2,11.1z"/>
</g>
<path class="st0" d="M19.5,6.8c-1.8,0-3-1.3-3-3.4c0-1.9,1.2-3.3,3-3.3c1.8,0,3,1.3,3,3.3C22.4,5.5,21.3,6.8,19.5,6.8"/>
</svg>
