<?xml version="1.0" encoding="utf-8"?>
<!-- Generator: Adobe Illustrator 21.1.0, SVG Export Plug-In . SVG Version: 6.00 Build 0)  -->
<svg version="1.1" id="Layer_1" xmlns="http://www.w3.org/2000/svg" xmlns:xlink="http://www.w3.org/1999/xlink" x="0px" y="0px"
	 viewBox="0 0 35 35" style="enable-background:new 0 0 35 35;" xml:space="preserve">
<style type="text/css">
	.st0{fill-rule:evenodd;clip-rule:evenodd;fill:#2672A1;}
</style>
<path class="st0" d="M7.7,30.5c-3.8-1.3-4.7-4.1-4.5-7.7c0.2-5.1,0-10.2,0-15.4c0-3.3,0.8-4.5,4.1-5.7C12.4-0.2,17.7,0.1,23,0.5
	c0.9,0.1,1.8,0.2,2.6,0.4C30.9,2.2,32,3.6,32,9c0,4.7-0.1,9.4,0,14.1c0.1,3.5-0.9,6.1-4.5,7.4c0.6,1.4,1.2,2.7,1.8,4
	c-2.9,0.7-3,0.8-4.1-1.7c-0.7-1.7-1.7-2.5-3.6-2.3c-2.7,0.2-5.5,0.2-8.3,0c-1.7-0.1-2.6,0.5-3.3,2.1C9,35,8.9,35,5.7,34.8
	C6.4,33.3,7,32,7.7,30.5z M8.1,6C6.6,6,5.9,6.7,5.9,8.1c0,7.7-0.6,6.5,5.9,6.6c0.2,0,0.5,0,0.7,0c3.5,0,3.5,0,3.5-3.5
	C16,5.6,16.7,6,11,6C10,6,9,6.1,8.1,6z M11.7,24.2c0-1.5-1.2-2.7-2.6-2.6c-1.5,0.1-2.4,1-2.5,2.5c-0.1,1.5,1.1,2.7,2.5,2.7
	C10.6,26.8,11.7,25.7,11.7,24.2z M29.1,24.2c0-1.5-1.2-2.7-2.6-2.6c-1.5,0.1-2.4,1-2.5,2.5c-0.1,1.5,1.1,2.7,2.5,2.7
	C28,26.8,29.1,25.7,29.1,24.2z M21.1,6C19.7,6,19,6.7,19,8.1c0,7.7-0.6,6.5,5.9,6.6c0.2,0,0.5,0,0.7,0c3.5,0,3.5,0,3.5-3.5
	C29.1,5.6,29.7,6,24,6C23,6,22.1,6.1,21.1,6z"/>
</svg>
